<mxfile host="app.diagrams.net" modified="2020-11-16T01:51:38.918Z" agent="5.0 (Windows NT 10.0; Win64; x64) AppleWebKit/537.36 (KHTML, like Gecko) Chrome/86.0.4240.198 Safari/537.36" etag="PsnEgNcDAK6Xe8LQkZCZ" version="13.9.2" type="github">
  <diagram id="75593j-lVVGFzw1Habwj" name="Page-1">
    <mxGraphModel dx="868" dy="450" grid="1" gridSize="10" guides="1" tooltips="1" connect="1" arrows="1" fold="1" page="1" pageScale="1" pageWidth="827" pageHeight="1169" math="0" shadow="0">
      <root>
        <mxCell id="0" />
        <mxCell id="1" parent="0" />
        <mxCell id="d5rDAHySSIAsc6SkqLv3-3" style="edgeStyle=orthogonalEdgeStyle;rounded=0;orthogonalLoop=1;jettySize=auto;html=1;exitX=0.5;exitY=1;exitDx=0;exitDy=0;strokeWidth=2;" edge="1" parent="1" source="d5rDAHySSIAsc6SkqLv3-1" target="d5rDAHySSIAsc6SkqLv3-2">
          <mxGeometry relative="1" as="geometry" />
        </mxCell>
        <mxCell id="d5rDAHySSIAsc6SkqLv3-1" value="主程序" style="rounded=1;whiteSpace=wrap;html=1;" vertex="1" parent="1">
          <mxGeometry x="290" y="30" width="120" height="60" as="geometry" />
        </mxCell>
        <mxCell id="d5rDAHySSIAsc6SkqLv3-9" style="edgeStyle=orthogonalEdgeStyle;rounded=0;orthogonalLoop=1;jettySize=auto;html=1;strokeWidth=2;" edge="1" parent="1" source="d5rDAHySSIAsc6SkqLv3-2" target="d5rDAHySSIAsc6SkqLv3-8">
          <mxGeometry relative="1" as="geometry" />
        </mxCell>
        <mxCell id="d5rDAHySSIAsc6SkqLv3-2" value="初始化" style="rounded=0;whiteSpace=wrap;html=1;" vertex="1" parent="1">
          <mxGeometry x="290" y="150" width="120" height="52" as="geometry" />
        </mxCell>
        <mxCell id="d5rDAHySSIAsc6SkqLv3-8" value="按键按下" style="rhombus;whiteSpace=wrap;html=1;" vertex="1" parent="1">
          <mxGeometry x="275.25" y="250" width="149.5" height="75" as="geometry" />
        </mxCell>
      </root>
    </mxGraphModel>
  </diagram>
</mxfile>
